<svg width="61" height="61" viewBox="0 0 61 61" fill="none" xmlns="http://www.w3.org/2000/svg">
<g id="1">
<circle id="Ellipse" cx="30.6611" cy="30.3096" r="30" fill="#EFF6F1"/>
<g id="Insta">
<path id="Vector" d="M34.3197 22.8568C35.3842 22.8599 36.4042 23.2685 37.157 23.9933C37.9097 24.7182 38.334 25.7005 38.3372 26.7256V34.4622C38.334 35.4873 37.9097 36.4696 37.157 37.1945C36.4042 37.9193 35.3842 38.3279 34.3197 38.331H26.2854C25.2209 38.3279 24.2009 37.9193 23.4481 37.1945C22.6954 36.4696 22.2711 35.4873 22.2679 34.4622V26.7256C22.2711 25.7005 22.6954 24.7182 23.4481 23.9933C24.2009 23.2685 25.2209 22.8599 26.2854 22.8568H34.3197ZM34.3197 21.3096H26.2854C23.192 21.3096 20.6611 23.7467 20.6611 26.7256V34.4622C20.6611 37.4411 23.192 39.8782 26.2854 39.8782H34.3197C37.4131 39.8782 39.944 37.4411 39.944 34.4622V26.7256C39.944 23.7467 37.4131 21.3096 34.3197 21.3096Z" fill="#274C5B"/>
<path id="Vector_2" d="M35.5249 26.7264C35.2866 26.7264 35.0536 26.6583 34.8554 26.5308C34.6572 26.4032 34.5027 26.222 34.4115 26.0099C34.3203 25.7979 34.2964 25.5645 34.3429 25.3394C34.3894 25.1143 34.5042 24.9075 34.6727 24.7452C34.8413 24.5829 35.056 24.4724 35.2898 24.4276C35.5236 24.3828 35.7659 24.4058 35.9861 24.4936C36.2063 24.5815 36.3946 24.7302 36.527 24.9211C36.6594 25.1119 36.7301 25.3363 36.7301 25.5658C36.7304 25.7183 36.6995 25.8694 36.6391 26.0103C36.5786 26.1513 36.4899 26.2793 36.3779 26.3872C36.2659 26.495 36.1329 26.5805 35.9865 26.6387C35.8402 26.6969 35.6833 26.7267 35.5249 26.7264ZM30.3026 27.4998C30.9383 27.4998 31.5597 27.6813 32.0882 28.0214C32.6167 28.3614 33.0287 28.8448 33.2719 29.4103C33.5152 29.9758 33.5788 30.5981 33.4548 31.1985C33.3308 31.7988 33.0247 32.3503 32.5752 32.7831C32.1258 33.216 31.5531 33.5107 30.9297 33.6301C30.3062 33.7495 29.66 33.6883 29.0727 33.454C28.4854 33.2198 27.9835 32.8231 27.6303 32.3141C27.2772 31.8052 27.0887 31.2068 27.0887 30.5947C27.0896 29.7741 27.4285 28.9874 28.031 28.4072C28.6336 27.827 29.4505 27.5007 30.3026 27.4998ZM30.3026 25.9525C29.3492 25.9525 28.4172 26.2248 27.6244 26.7349C26.8316 27.245 26.2138 27.97 25.8489 28.8182C25.484 29.6665 25.3886 30.5998 25.5746 31.5003C25.7606 32.4008 26.2197 33.228 26.8939 33.8772C27.5681 34.5264 28.427 34.9685 29.3622 35.1477C30.2973 35.3268 31.2666 35.2348 32.1474 34.8835C33.0283 34.5321 33.7812 33.9371 34.3109 33.1737C34.8406 32.4103 35.1233 31.5128 35.1233 30.5947C35.1233 29.3635 34.6155 28.1828 33.7114 27.3122C32.8073 26.4416 31.5812 25.9525 30.3026 25.9525Z" fill="#274C5B"/>
</g>
</g>
</svg>
