<svg width="61" height="61" viewBox="0 0 61 61" fill="none" xmlns="http://www.w3.org/2000/svg">
<g id="2">
<circle id="Ellipse" cx="30.6611" cy="30.3096" r="30" fill="#EFF6F1"/>
<g id="Fb">
<path id="Vector" fill-rule="evenodd" clip-rule="evenodd" d="M39.944 30.5939C39.944 25.4668 35.6268 21.3096 30.3025 21.3096C24.9782 21.3096 20.6611 25.4668 20.6611 30.5939C20.6611 35.2278 24.1863 39.0687 28.7961 39.7659V33.2785H26.3474V30.5939H28.7961V28.5484C28.7961 26.222 30.2358 24.9358 32.4379 24.9358C33.4928 24.9358 34.5964 25.1174 34.5964 25.1174V27.4024H33.3801C32.1831 27.4024 31.8086 28.1178 31.8086 28.8531V30.5939H34.4824L34.0554 33.2785H31.809V39.7667C36.4188 39.07 39.944 35.229 39.944 30.5939Z" fill="#274C5B"/>
</g>
</g>
</svg>
