<svg width="61" height="61" viewBox="0 0 61 61" fill="none" xmlns="http://www.w3.org/2000/svg">
<g id="3">
<circle id="Ellipse" cx="30.6611" cy="30.3096" r="30" fill="#EFF6F1"/>
<g id="Twiter">
<path id="Vector" d="M41.3213 24.268C40.5463 24.6047 39.7263 24.8266 38.8873 24.9265C39.7691 24.4102 40.4322 23.5899 40.7523 22.6195C39.9186 23.107 39.008 23.449 38.0596 23.631C37.6602 23.2124 37.1799 22.8794 36.6478 22.6523C36.1157 22.4251 35.543 22.3085 34.9644 22.3096C32.6221 22.3096 30.7265 24.1776 30.7265 26.4803C30.7248 26.8007 30.7616 27.12 30.8358 27.4316C29.1562 27.3528 27.5115 26.9244 26.0069 26.1736C24.5024 25.4228 23.1711 24.3662 22.0983 23.0714C21.7219 23.7059 21.5229 24.4298 21.522 25.1676C21.522 26.6138 22.2765 27.8921 23.4158 28.6411C22.7408 28.625 22.0796 28.4464 21.4884 28.1202V28.1719C21.4884 30.1949 22.9518 31.8778 24.8887 32.2609C24.5245 32.358 24.1492 32.4072 23.7722 32.4072C23.5047 32.4077 23.2379 32.3817 22.9755 32.3298C23.514 33.9869 25.0811 35.1921 26.9375 35.2265C25.4291 36.389 23.5771 37.0174 21.6726 37.0127C21.3346 37.0122 20.9968 36.9921 20.6611 36.9525C22.5985 38.1896 24.8506 38.844 27.1493 38.8377C34.9554 38.8377 39.22 32.4804 39.22 26.9667C39.22 26.7859 39.2153 26.6052 39.2066 26.4287C40.0344 25.8399 40.7505 25.1082 41.3213 24.268Z" fill="#274C5B"/>
</g>
</g>
</svg>
