<svg width="61" height="61" viewBox="0 0 61 61" fill="none" xmlns="http://www.w3.org/2000/svg">
<g id="4">
<circle id="Ellipse" cx="30.6611" cy="30.3096" r="30" fill="#EFF6F1"/>
<g id="Pintrest">
<path id="Vector" d="M30.4578 20.3096C25.0478 20.3096 20.6611 24.6942 20.6611 30.1018C20.6611 34.1105 23.0753 37.5553 26.526 39.0723C26.4998 38.3903 26.5216 37.5684 26.6966 36.8253C26.8846 36.0297 27.9561 31.4876 27.9561 31.4876C27.9561 31.4876 27.6412 30.8625 27.6412 29.9401C27.6412 28.4887 28.4809 27.4046 29.5306 27.4046C30.4228 27.4046 30.8514 28.0734 30.8514 28.8734C30.8514 29.7696 30.2785 31.1073 29.9854 32.3488C29.7405 33.3892 30.5059 34.2329 31.5337 34.2329C33.388 34.2329 34.6388 31.8505 34.6388 29.0264C34.6388 26.88 33.1912 25.2756 30.5627 25.2756C27.5931 25.2756 25.7388 27.492 25.7388 29.9663C25.7388 30.8188 25.9924 31.422 26.386 31.8854C26.5654 32.0996 26.5916 32.1871 26.526 32.4319C26.4779 32.6111 26.3729 33.0439 26.3248 33.2187C26.2592 33.4679 26.058 33.5554 25.835 33.4636C24.4661 32.904 23.8275 31.4089 23.8275 29.7215C23.8275 26.9412 26.1761 23.6057 30.8295 23.6057C34.5689 23.6057 37.0311 26.3117 37.0311 29.2144C37.0311 33.057 34.8925 35.9247 31.7436 35.9247C30.6852 35.9247 29.6924 35.3521 29.3513 34.7051C29.3513 34.7051 28.7827 36.9608 28.6603 37.3979C28.4547 38.1542 28.048 38.9061 27.6762 39.4963C28.578 39.7622 29.5132 39.8976 30.4534 39.8985C35.8634 39.8985 40.25 35.5138 40.25 30.1062C40.25 24.6986 35.8678 20.3096 30.4578 20.3096Z" fill="#274C5B"/>
</g>
</g>
</svg>
