<svg width="60" height="61" viewBox="0 0 60 61" fill="none" xmlns="http://www.w3.org/2000/svg">
<circle cx="30" cy="30.5" r="30" fill="#EFF6F1"/>
<path d="M33.6585 23.0472C34.7231 23.0503 35.7431 23.4589 36.4958 24.1838C37.2486 24.9086 37.6729 25.8909 37.6761 26.916V34.6527C37.6729 35.6778 37.2486 36.66 36.4958 37.3849C35.7431 38.1098 34.7231 38.5183 33.6585 38.5214H25.6243C24.5598 38.5183 23.5397 38.1098 22.787 37.3849C22.0342 36.66 21.6099 35.6778 21.6068 34.6527V26.916C21.6099 25.8909 22.0342 24.9086 22.787 24.1838C23.5397 23.4589 24.5598 23.0503 25.6243 23.0472H33.6585ZM33.6585 21.5H25.6243C22.5309 21.5 20 23.9371 20 26.916V34.6527C20 37.6315 22.5309 40.0686 25.6243 40.0686H33.6585C36.752 40.0686 39.2828 37.6315 39.2828 34.6527V26.916C39.2828 23.9371 36.752 21.5 33.6585 21.5Z" fill="#274C5B"/>
<path d="M34.8633 26.9168C34.6249 26.9168 34.3919 26.8487 34.1937 26.7212C33.9956 26.5937 33.8411 26.4124 33.7499 26.2004C33.6587 25.9883 33.6348 25.755 33.6813 25.5298C33.7278 25.3047 33.8426 25.0979 34.0111 24.9356C34.1797 24.7733 34.3944 24.6628 34.6282 24.618C34.862 24.5732 35.1043 24.5962 35.3245 24.684C35.5447 24.7719 35.7329 24.9206 35.8654 25.1115C35.9978 25.3023 36.0685 25.5267 36.0685 25.7562C36.0688 25.9087 36.0379 26.0598 35.9774 26.2008C35.917 26.3417 35.8282 26.4698 35.7163 26.5776C35.6043 26.6854 35.4713 26.7709 35.3249 26.8291C35.1785 26.8873 35.0217 26.9171 34.8633 26.9168ZM29.641 27.6902C30.2767 27.6902 30.8981 27.8717 31.4266 28.2118C31.9551 28.5519 32.3671 29.0352 32.6103 29.6007C32.8536 30.1663 32.9172 30.7885 32.7932 31.3889C32.6692 31.9893 32.3631 32.5407 31.9136 32.9735C31.4641 33.4064 30.8915 33.7011 30.268 33.8206C29.6446 33.94 28.9984 33.8787 28.4111 33.6444C27.8238 33.4102 27.3219 33.0135 26.9687 32.5046C26.6156 31.9956 26.4271 31.3972 26.4271 30.7851C26.428 29.9646 26.7669 29.1779 27.3694 28.5977C27.972 28.0174 28.7889 27.6911 29.641 27.6902ZM29.641 26.143C28.6876 26.143 27.7555 26.4152 26.9628 26.9253C26.17 27.4354 25.5521 28.1604 25.1873 29.0086C24.8224 29.8569 24.7269 30.7903 24.9129 31.6908C25.099 32.5912 25.5581 33.4184 26.2323 34.0676C26.9065 34.7168 27.7654 35.159 28.7005 35.3381C29.6357 35.5172 30.605 35.4253 31.4858 35.0739C32.3667 34.7226 33.1196 34.1276 33.6493 33.3642C34.179 32.6008 34.4617 31.7032 34.4617 30.7851C34.4617 29.5539 33.9538 28.3732 33.0498 27.5026C32.1457 26.632 30.9196 26.143 29.641 26.143Z" fill="#274C5B"/>
</svg>
