<svg width="60" height="61" viewBox="0 0 60 61" fill="none" xmlns="http://www.w3.org/2000/svg">
<circle cx="30" cy="30.5" r="30" fill="#EFF6F1"/>
<path d="M40.6602 24.4584C39.8852 24.7952 39.0652 25.017 38.2261 25.117C39.1079 24.6006 39.7711 23.7803 40.0912 22.8099C39.2575 23.2974 38.3469 23.6394 37.3984 23.8214C36.9991 23.4028 36.5187 23.0698 35.9866 22.8427C35.4546 22.6155 34.8818 22.4989 34.3033 22.5C31.9609 22.5 30.0654 24.368 30.0654 26.6708C30.0637 26.9911 30.1004 27.3104 30.1747 27.622C28.4951 27.5433 26.8504 27.1148 25.3458 26.364C23.8413 25.6132 22.51 24.5566 21.4372 23.2619C21.0608 23.8963 20.8618 24.6203 20.8608 25.358C20.8608 26.8042 21.6154 28.0826 22.7547 28.8315C22.0797 28.8155 21.4185 28.6368 20.8273 28.3107V28.3623C20.8273 30.3853 22.2907 32.0682 24.2276 32.4513C23.8634 32.5484 23.488 32.5976 23.1111 32.5977C22.8436 32.5981 22.5767 32.5722 22.3144 32.5202C22.8528 34.1773 24.42 35.3825 26.2764 35.4169C24.7679 36.5794 22.9159 37.2078 21.0115 37.2032C20.6734 37.2027 20.3357 37.1825 20 37.1429C21.9374 38.38 24.1895 39.0344 26.4882 39.0281C34.2943 39.0281 38.5589 32.6708 38.5589 27.1572C38.5589 26.9764 38.5541 26.7956 38.5455 26.6191C39.3733 26.0303 40.0893 25.2986 40.6602 24.4584Z" fill="#274C5B"/>
</svg>
