<svg width="60" height="61" viewBox="0 0 60 61" fill="none" xmlns="http://www.w3.org/2000/svg">
<circle cx="30" cy="30.5" r="30" fill="#EFF6F1"/>
<path fill-rule="evenodd" clip-rule="evenodd" d="M39.2828 30.7843C39.2828 25.6572 34.9657 21.5 29.6414 21.5C24.3171 21.5 20 25.6572 20 30.7843C20 35.4182 23.5251 39.2592 28.1349 39.9563V33.4689H25.6863V30.7843H28.1349V28.7389C28.1349 26.4124 29.5747 25.1263 31.7767 25.1263C32.8317 25.1263 33.9353 25.3078 33.9353 25.3078V27.5928H32.7189C31.5219 27.5928 31.1475 28.3082 31.1475 29.0435V30.7843H33.8212L33.3942 33.4689H31.1479V39.9572C35.7577 39.2604 39.2828 35.4194 39.2828 30.7843Z" fill="#274C5B"/>
</svg>
