<svg width="60" height="61" viewBox="0 0 60 61" fill="none" xmlns="http://www.w3.org/2000/svg">
<circle cx="30" cy="30.5" r="30" fill="#EFF6F1"/>
<path d="M29.7966 20.5C24.3866 20.5 20 24.8847 20 30.2923C20 34.301 22.4142 37.7458 25.8649 39.2627C25.8386 38.5807 25.8605 37.7589 26.0354 37.0157C26.2235 36.2201 27.295 31.678 27.295 31.678C27.295 31.678 26.9801 31.0529 26.9801 30.1305C26.9801 28.6792 27.8198 27.595 28.8695 27.595C29.7617 27.595 30.1903 28.2639 30.1903 29.0639C30.1903 29.96 29.6173 31.2977 29.3243 32.5392C29.0794 33.5797 29.8447 34.4234 30.8725 34.4234C32.7269 34.4234 33.9777 32.0409 33.9777 29.2169C33.9777 27.0704 32.5301 25.4661 29.9016 25.4661C26.932 25.4661 25.0776 27.6825 25.0776 30.1567C25.0776 31.0092 25.3313 31.6125 25.7249 32.0759C25.9042 32.2901 25.9305 32.3775 25.8649 32.6223C25.8168 32.8015 25.7118 33.2343 25.6637 33.4092C25.5981 33.6584 25.3969 33.7458 25.1738 33.654C23.8049 33.0944 23.1664 31.5994 23.1664 29.9119C23.1664 27.1316 25.515 23.7961 30.1684 23.7961C33.9077 23.7961 36.37 26.5021 36.37 29.4048C36.37 33.2474 34.2314 36.1152 31.0824 36.1152C30.0241 36.1152 29.0313 35.5425 28.6901 34.8955C28.6901 34.8955 28.1216 37.1512 27.9991 37.5884C27.7936 38.3447 27.3868 39.0966 27.0151 39.6867C27.9169 39.9526 28.8521 40.0881 29.7923 40.0889C35.2023 40.0889 39.5889 35.7042 39.5889 30.2966C39.5889 24.889 35.2067 20.5 29.7966 20.5Z" fill="#274C5B"/>
</svg>
